<?xml version="1.0" encoding="utf-8"?>
<!-- Generator: Adobe Illustrator 21.1.0, SVG Export Plug-In . SVG Version: 6.00 Build 0)  -->
<svg version="1.1" id="Layer_1" xmlns="http://www.w3.org/2000/svg" xmlns:xlink="http://www.w3.org/1999/xlink" x="0px" y="0px"
	 viewBox="0 0 58.9 58.5" style="enable-background:new 0 0 58.9 58.5;" xml:space="preserve">
<style type="text/css">
	.st0{fill:#FFFFFF;}
</style>
<g>
	<path class="st0" d="M29.5,0c2.7,0.1,4.9,2.3,4.8,5.1c-0.1,2.7-2.4,4.8-5.1,4.7s-4.8-2.4-4.7-5.1C24.6,2.1,26.9-0.1,29.5,0z
		 M29.4,3.3c-0.9,0-1.6,0.8-1.6,1.6c0,0.9,0.8,1.6,1.6,1.6c0.9,0,1.7-0.8,1.6-1.7C31,4,30.3,3.3,29.4,3.3z"/>
	<path class="st0" d="M29.4,27.2c0.8-0.9,1.5-1.6,2.2-2.3c0.8,0.8,1.5,1.6,2.3,2.4c-0.6,0.6-1.4,1.3-2.2,2.1
		c0.9,0.8,1.6,1.5,2.4,2.2c-0.9,0.9-1.6,1.6-2.4,2.4c-0.7-0.7-1.3-1.5-2.1-2.3c-0.8,0.9-1.5,1.7-2.1,2.4c-0.9-0.9-1.7-1.6-2.5-2.4
		c0.7-0.6,1.4-1.4,2.2-2.1c-0.9-0.8-1.6-1.5-2.4-2.2c0.9-0.9,1.6-1.6,2.4-2.4C27.9,25.6,28.6,26.4,29.4,27.2z"/>
	<path class="st0" d="M28.6,58.5c-1.3-1.3-2.8-2.8-4.2-4.2c0.7-0.7,1.4-1.4,2.3-2.2c0.6,0.7,1.2,1.4,1.9,2.3
		c1.4-1.4,2.6-2.7,3.8-3.9c0.8,0.9,1.5,1.6,2.2,2.3C32.5,54.6,30.5,56.5,28.6,58.5z"/>
	<path class="st0" d="M19.6,52.4c0.9,0,1.6,0.7,1.6,1.6c0,0.9-0.7,1.6-1.6,1.6S18,54.9,18,54S18.7,52.4,19.6,52.4z"/>
	<path class="st0" d="M39.3,31.1c-0.9,0-1.6-0.7-1.7-1.6c0-0.8,0.7-1.6,1.6-1.7c0.9,0,1.6,0.7,1.7,1.6C40.9,30.3,40.2,31,39.3,31.1z
		"/>
	<path class="st0" d="M19.6,27.8c0.9,0,1.6,0.8,1.6,1.6c0,0.9-0.8,1.6-1.6,1.6c-0.9,0-1.6-0.8-1.6-1.6C18,28.6,18.8,27.8,19.6,27.8z
		"/>
	<path class="st0" d="M51.4,8.3c-0.9,0-1.6-0.7-1.6-1.6s0.7-1.6,1.6-1.6c0.8,0,1.6,0.7,1.6,1.6C53.1,7.6,52.3,8.3,51.4,8.3z"/>
	<path class="st0" d="M40.9,4.9c0,0.9-0.8,1.6-1.6,1.6c-0.9,0-1.6-0.8-1.6-1.6c0-0.9,0.8-1.6,1.6-1.6C40.1,3.3,40.9,4.1,40.9,4.9z"
		/>
	<path class="st0" d="M51.4,29.2c-0.9,0-1.6-0.7-1.6-1.6s0.7-1.6,1.6-1.6c0.9,0,1.6,0.7,1.6,1.6C53.1,28.4,52.3,29.2,51.4,29.2z"/>
	<path class="st0" d="M9.1,52.1c0,0.9-0.7,1.6-1.6,1.7c-0.8,0-1.6-0.7-1.6-1.6c0-0.9,0.7-1.6,1.6-1.6C8.3,50.5,9.1,51.2,9.1,52.1z"
		/>
	<path class="st0" d="M7.4,32.9c-0.9,0-1.6-0.9-1.5-1.7c0.1-0.9,0.9-1.6,1.7-1.5c0.9,0.1,1.6,0.8,1.5,1.7C9,32.2,8.2,32.9,7.4,32.9z
		"/>
	<path class="st0" d="M45.5,3.3c0.9,0,1.6,0.8,1.6,1.7s-0.7,1.6-1.6,1.6c-0.9,0-1.6-0.8-1.6-1.6C43.9,4,44.7,3.3,45.5,3.3z"/>
	<path class="st0" d="M47.1,29.5c0,0.9-0.8,1.6-1.6,1.6c-0.9,0-1.6-0.8-1.6-1.7c0-0.9,0.8-1.6,1.6-1.6
		C46.4,27.8,47.1,28.6,47.1,29.5z"/>
	<path class="st0" d="M13.3,52.3c0.9,0,1.6,0.7,1.6,1.6c0,0.9-0.7,1.6-1.6,1.6c-0.9,0-1.6-0.7-1.6-1.6
		C11.8,53.1,12.5,52.4,13.3,52.3z"/>
	<path class="st0" d="M58.9,17.2c0,0.9-0.8,1.6-1.6,1.6c-0.9,0-1.6-0.7-1.6-1.6s0.8-1.6,1.6-1.6C58.1,15.6,58.9,16.3,58.9,17.2z"/>
	<path class="st0" d="M4.8,35.7c0,0.9-0.7,1.6-1.6,1.7c-0.9,0-1.6-0.7-1.6-1.6c0-0.9,0.7-1.6,1.6-1.6C4.1,34.1,4.8,34.8,4.8,35.7z"
		/>
	<path class="st0" d="M1.6,40.1c0.9,0,1.6,0.7,1.6,1.6c0,0.9-0.8,1.6-1.6,1.6c-0.9,0-1.6-0.8-1.6-1.6C0,40.8,0.7,40.1,1.6,40.1z"/>
	<path class="st0" d="M55.7,24.7c-0.9,0-1.6-0.7-1.6-1.6s0.7-1.6,1.6-1.6c0.9,0,1.6,0.7,1.6,1.6S56.6,24.7,55.7,24.7z"/>
	<path class="st0" d="M14.9,29.4c0,0.9-0.7,1.6-1.6,1.6c-0.9,0-1.6-0.7-1.6-1.6s0.7-1.6,1.6-1.6S14.9,28.5,14.9,29.4z"/>
	<path class="st0" d="M3.2,46.1c0.9,0,1.6,0.7,1.6,1.6c0,0.9-0.8,1.6-1.6,1.6c-0.9,0-1.6-0.7-1.6-1.6C1.6,46.8,2.3,46.1,3.2,46.1z"
		/>
	<path class="st0" d="M57.3,11.1c0,0.9-0.7,1.6-1.6,1.6c-0.9,0-1.6-0.7-1.6-1.6c0-0.9,0.7-1.6,1.6-1.6C56.5,9.6,57.3,10.2,57.3,11.1
		z"/>
</g>
</svg>
